<?xml version="1.0" encoding="utf-8"?>
<!-- Generator: Adobe Illustrator 16.0.0, SVG Export Plug-In . SVG Version: 6.00 Build 0)  -->
<!DOCTYPE svg PUBLIC "-//W3C//DTD SVG 1.1//EN" "http://www.w3.org/Graphics/SVG/1.1/DTD/svg11.dtd">
<svg version="1.1" id="Layer_1" xmlns="http://www.w3.org/2000/svg" xmlns:xlink="http://www.w3.org/1999/xlink" x="0px" y="0px"
	 width="32px" height="32px" viewBox="0 0 32 32" enable-background="new 0 0 32 32" xml:space="preserve">
<g>
	<path fill="none" stroke="#97B3DE" stroke-width="2" stroke-linecap="round" stroke-miterlimit="10" d="M19,7c0-0.552-0.447-1-1-1
		h-4c-0.552,0-1,0.448-1,1v23c0,0.553,0.448,1,1,1h4c0.553,0,1-0.447,1-1V7z"/>
	<path fill="none" stroke="#97B3DE" stroke-width="2" stroke-linecap="round" stroke-miterlimit="10" d="M7,14c0-0.552-0.448-1-1-1
		H2c-0.552,0-1,0.448-1,1v16c0,0.553,0.448,1,1,1h4c0.552,0,1-0.447,1-1V14z"/>
	<path fill="none" stroke="#97B3DE" stroke-width="2" stroke-linecap="round" stroke-miterlimit="10" d="M31,2c0-0.552-0.447-1-1-1
		h-4c-0.553,0-1,0.448-1,1v28c0,0.553,0.447,1,1,1h4c0.553,0,1-0.447,1-1V2z"/>
</g>
</svg>
