<?xml version="1.0" encoding="utf-8"?>
<svg version="1.1" id="Layer_1" xmlns="http://www.w3.org/2000/svg" xmlns:xlink="http://www.w3.org/1999/xlink" x="0px" y="0px"
	 width="70px" height="70px" viewBox="15 15 70 70" enable-background="new 15 15 70 70">
<path d="M37.311,55.619h15.166c1.104,0,2-1.016,2-2.119v-24c0-1.104-0.896-2-2-2s-2,0.896-2,2v22.119H37.311c-1.104,0-2,0.896-2,2
	S36.206,55.619,37.311,55.619z"/>
<path d="M50,83.5c18.473,0,33.5-15.027,33.5-33.5c0-18.472-15.027-33.5-33.5-33.5S16.5,31.528,16.5,50
	C16.5,68.473,31.528,83.5,50,83.5z M50,20.5c16.268,0,29.5,13.234,29.5,29.5S66.268,79.5,50,79.5S20.5,66.266,20.5,50
	S33.733,20.5,50,20.5z"/>
</svg>
