<?xml version="1.0" encoding="utf-8"?>
<svg version="1.1" id="Layer_1" xmlns="http://www.w3.org/2000/svg" xmlns:xlink="http://www.w3.org/1999/xlink" x="0px" y="0px"
	 width="80px" height="80px" viewBox="10 10 80 80" enable-background="new 10 10 80 80" xml:space="preserve">
<path d="M88.121,50.113C76.072,35.509,63.117,28.328,49.614,28.674c-21.785,0.609-36.781,20.674-37.409,21.527
	c-0.029,0.04-0.049,0.084-0.074,0.126c-0.021,0.032-0.04,0.065-0.059,0.1c-0.045,0.08-0.083,0.16-0.115,0.243
	c-0.015,0.04-0.028,0.08-0.041,0.12c-0.025,0.079-0.046,0.158-0.061,0.237c-0.01,0.053-0.016,0.104-0.021,0.158
	c-0.007,0.067-0.012,0.135-0.012,0.205c0,0.067,0.005,0.135,0.012,0.203c0.006,0.053,0.012,0.104,0.021,0.157
	c0.015,0.08,0.036,0.159,0.061,0.238c0.013,0.04,0.026,0.079,0.041,0.12c0.032,0.082,0.071,0.162,0.115,0.242
	c0.019,0.034,0.037,0.066,0.059,0.101c0.025,0.041,0.045,0.086,0.074,0.126c0.628,0.854,15.624,20.918,37.409,21.527
	c0.337,0.009,0.672,0.014,1.007,0.014c13.139,0,25.75-7.213,37.5-21.453c0.309-0.374,0.449-0.827,0.447-1.275
	C88.57,50.939,88.43,50.487,88.121,50.113z M49.75,70.107c-16.938-0.461-29.881-14.517-33.378-18.717
	c3.497-4.202,16.439-18.259,33.378-18.72c11.822-0.309,23.305,5.989,34.201,18.72C73.057,64.121,61.584,70.45,49.75,70.107z"/>
<path d="M50.197,38.223c-7.261,0-13.167,5.906-13.167,13.166c0,7.262,5.906,13.168,13.167,13.168
	c7.261,0,13.166-5.906,13.166-13.168C63.363,44.129,57.458,38.223,50.197,38.223z M50.197,60.557c-5.055,0-9.167-4.113-9.167-9.168
	c0-5.054,4.112-9.166,9.167-9.166c5.055,0,9.166,4.112,9.166,9.166C59.363,56.443,55.252,60.557,50.197,60.557z"/>
</svg>
